<svg width="40" height="29" viewBox="0 0 40 29" fill="none" xmlns="http://www.w3.org/2000/svg">
<path d="M4.62213 0.0329164C2.72338 0.141079 1.30341 1.05303 0.471998 2.70723C-0.0300338 3.70442 -0.0145238 3.13989 0.00914922 14.6872L0.0328222 25.183L0.244655 25.7628C0.754442 27.1308 1.89238 28.2438 3.27318 28.7154L3.79887 28.8931H20.0393H36.2798L36.8211 28.6845C38.2488 28.1127 39.2765 27.0845 39.7868 25.6857L39.9671 25.183L39.9908 14.6872C40.0145 3.13989 40.03 3.69639 39.528 2.69155C38.8925 1.41612 37.7391 0.496529 36.3351 0.141079C35.8876 0.0252761 34.3501 0.00959413 20.6438 0.00195434C12.2873 -0.00568529 5.07721 0.00999706 4.62213 0.0329164ZM33.9567 3.71206C33.9489 3.82023 20.3365 13.2807 20.2113 13.273C20.1015 13.265 7.28942 3.76635 7.28942 3.68874C7.28942 3.67348 13.2913 3.65778 20.6267 3.65778C27.9624 3.65778 33.9645 3.6811 33.9567 3.71206ZM11.9342 11.8122C16.4141 15.1512 20.1093 17.8794 20.1484 17.8794C20.1953 17.8794 23.8201 15.3595 28.2135 12.2911L36.2003 6.69519L36.2239 15.6301C36.2395 24.1629 36.2317 24.5726 36.0982 24.7504C36.0199 24.8585 35.8551 25.0134 35.7375 25.0982L35.5255 25.2606H19.9993H4.47314L4.26132 25.0982C4.14376 25.0134 3.97112 24.8433 3.88459 24.727C3.71969 24.5184 3.71969 24.4721 3.69643 15.1275C3.68868 9.96462 3.70419 5.74425 3.7356 5.74425C3.77479 5.74466 7.46208 8.47325 11.9342 11.8122Z" fill="white"/>
</svg>
