<svg width="231" height="170" viewBox="0 0 231 170" fill="none" xmlns="http://www.w3.org/2000/svg">
<path d="M26.6928 0.388581C15.7275 1.02264 7.5272 6.36853 2.72579 16.0656C-0.173445 21.9112 -0.0838749 18.6019 0.0528368 86.293L0.189548 147.82L1.41288 151.219C4.3569 159.238 10.9285 165.763 18.9026 168.527L21.9385 169.569H115.727H209.516L212.642 168.346C220.887 164.994 226.822 158.967 229.769 150.767L230.81 147.82L230.947 86.293C231.084 18.6019 231.173 21.8641 228.274 15.9737C224.604 8.497 217.943 3.10631 209.835 1.02264C207.251 0.343793 198.372 0.251864 119.218 0.207079C70.9591 0.162295 29.3209 0.254226 26.6928 0.388581ZM196.1 21.956C196.055 22.5901 117.443 78.0479 116.72 78.0031C116.086 77.956 42.0964 22.2742 42.0964 21.8193C42.0964 21.7298 76.7575 21.6378 119.119 21.6378C161.483 21.6378 196.145 21.7745 196.1 21.956ZM68.9202 69.4398C94.7917 89.0131 116.131 105.006 116.357 105.006C116.628 105.006 137.561 90.2341 162.933 72.2471L209.057 39.4433L209.193 91.8204C209.283 141.84 209.238 144.242 208.467 145.284C208.015 145.918 207.063 146.826 206.384 147.323L205.16 148.275H115.496H25.8324L24.6091 147.323C23.9302 146.826 22.9332 145.829 22.4335 145.147C21.4812 143.924 21.4812 143.653 21.3469 88.8741C21.3021 58.6089 21.3917 33.8688 21.5731 33.8688C21.7994 33.8712 43.0935 49.8664 68.9202 69.4398Z" fill="white"/>
</svg>
