<svg width="34" height="34" viewBox="0 0 34 34" fill="none" xmlns="http://www.w3.org/2000/svg">
<path d="M17 0.5C26.1125 0.5 33.5 7.8875 33.5 17C33.5 26.1125 26.1125 33.5 17 33.5C14.0795 33.5 11.3382 32.738 8.9585 31.4067L0.66125 33.263L2.77325 25.3528C1.33025 22.9025 0.5 20.0488 0.5 17C0.5 7.8875 7.8875 0.5 17 0.5ZM25.1458 22.6963C25.4855 21.7423 25.4855 20.924 25.3798 20.7522C25.277 20.5857 25.0085 20.4838 24.599 20.279C24.1895 20.0743 22.1802 19.0828 21.8037 18.9478C21.4325 18.8128 21.1573 18.743 20.8895 19.1525C20.6143 19.562 19.835 20.4837 19.5913 20.7515C19.355 21.0267 19.118 21.0583 18.7085 20.8535C18.299 20.6488 16.9813 20.2197 15.4213 18.8255C14.207 17.7447 13.3873 16.4068 13.151 15.9988C12.9148 15.59 13.1248 15.3665 13.3295 15.161C13.5155 14.9825 13.739 14.6877 13.9445 14.4515C14.1425 14.2077 14.2122 14.042 14.3472 13.7667C14.489 13.499 14.4177 13.2552 14.3157 13.0505C14.2137 12.8457 13.421 10.8245 13.0565 10.0182C12.7498 9.34025 12.4295 9.32075 12.1355 9.314C11.8977 9.302 11.6225 9.302 11.3547 9.302C11.0795 9.302 10.6385 9.404 10.2612 9.8135C9.8915 10.223 8.8355 11.2093 8.8355 13.2238C8.8355 15.2315 10.2943 17.177 10.499 17.4447C10.7038 17.72 13.3258 21.9793 17.4838 23.6173C20.9308 24.9748 21.635 24.7048 22.3895 24.635C23.1365 24.5705 24.806 23.6495 25.1458 22.6963Z" fill="white"/>
</svg>
